<svg xmlns="http://www.w3.org/2000/svg" viewBox="0 0 900 600"><rect fill="#EE1C25" width="900" height="600"/><g fill="#FF0" transform="translate(150,150)"><polygon id="star" points="0,-90 19.02,-27.81 84.57,-27.81 30.77,10.63 49.8,72.81 0,34.36 -49.8,72.81 -30.77,10.63 -84.57,-27.81 -19.02,-27.81"/></g><g fill="#FF0" transform="translate(300,60)"><polygon points="0,-30 6.34,-9.27 28.19,-9.27 10.26,3.54 16.6,24.27 0,11.45 -16.6,24.27 -10.26,3.54 -28.19,-9.27 -6.34,-9.27" transform="rotate(23.04)"/></g><g fill="#FF0" transform="translate(360,120)"><polygon points="0,-30 6.34,-9.27 28.19,-9.27 10.26,3.54 16.6,24.27 0,11.45 -16.6,24.27 -10.26,3.54 -28.19,-9.27 -6.34,-9.27" transform="rotate(45.87)"/></g><g fill="#FF0" transform="translate(360,210)"><polygon points="0,-30 6.34,-9.27 28.19,-9.27 10.26,3.54 16.6,24.27 0,11.45 -16.6,24.27 -10.26,3.54 -28.19,-9.27 -6.34,-9.27" transform="rotate(70.35)"/></g><g fill="#FF0" transform="translate(300,270)"><polygon points="0,-30 6.34,-9.27 28.19,-9.27 10.26,3.54 16.6,24.27 0,11.45 -16.6,24.27 -10.26,3.54 -28.19,-9.27 -6.34,-9.27" transform="rotate(20.66)"/></g></svg>
