<svg viewBox="0 0 24 24" xmlns="http://www.w3.org/2000/svg" fill="#76B900">
<path d="M9.067 5.91v-1.46c.14-.012.28-.02.422-.026 3.983-.125 6.595 3.3 6.595 3.3s-2.827 3.93-5.857 3.93a4.096 4.096 0 01-1.16-.189V6.08c1.553.187 1.866.873 2.8 2.43l2.075-1.752s-1.514-1.99-3.565-1.99c-.278 0-.548.02-.81.054v.001zM9.067.042v2.18c.143-.012.286-.022.43-.028 5.545-.186 9.159 4.548 9.159 4.548s-4.148 5.045-8.478 5.045c-.396 0-.76-.037-1.11-.099v1.346c.298.037.612.06.94.06 4.02 0 6.925-2.055 9.742-4.488.468.374 2.38 1.283 2.773 1.682-2.68 2.243-8.923 4.05-12.362 4.05-.39 0-.764-.018-1.093-.05V18h15.28V.042H9.068zm0 10.508v1.15c-3.72-.663-4.753-4.53-4.753-4.53s1.786-1.981 4.753-2.303V6.08l-.006-.001c-1.556-.188-3.073 1.266-3.073 1.266s.682 2.45 3.08 3.206zM2.49 6.963s2.203-3.256 6.577-3.593V1.582C4.196 1.975 0 6.104 0 6.104s2.393 6.916 9.067 7.549v-1.255C4.142 11.83 2.49 6.963 2.49 6.963z"/>
</svg>
